<?xml version="1.0" encoding="UTF-8"?>
<svg xmlns="http://www.w3.org/2000/svg" xmlns:xlink="http://www.w3.org/1999/xlink" stroke-dasharray="none" shape-rendering="auto" font-family="'Dialog'" width="956" text-rendering="auto" fill-opacity="1" contentScriptType="text/ecmascript" color-interpolation="auto" color-rendering="auto" preserveAspectRatio="xMidYMid meet" font-size="12" viewBox="0 0 956 1311" fill="black" stroke="black" image-rendering="auto" stroke-miterlimit="10" zoomAndPan="magnify" version="1.0" stroke-linecap="square" stroke-linejoin="miter" contentStyleType="text/css" font-style="normal" height="1311" stroke-width="1" stroke-dashoffset="0" font-weight="normal" stroke-opacity="1">
  <!--Generated by the Batik Graphics2D SVG Generator-->
  <defs id="genericDefs" />
  <g>
    <defs id="defs1">
      <clipPath clipPathUnits="userSpaceOnUse" id="clipPath1">
        <path d="M609 9 L728 9 L728 61 L609 61 L609 9 Z" />
      </clipPath>
      <clipPath clipPathUnits="userSpaceOnUse" id="clipPath2">
        <path d="M609 9 L732 9 L732 61 L609 61 L609 9 Z" />
      </clipPath>
      <clipPath clipPathUnits="userSpaceOnUse" id="clipPath3">
        <path d="M609 9 L730 9 L730 61 L609 61 L609 9 Z" />
      </clipPath>
      <clipPath clipPathUnits="userSpaceOnUse" id="clipPath4">
        <path d="M662 59 L674 59 L674 1302 L662 1302 L662 59 Z" />
      </clipPath>
      <clipPath clipPathUnits="userSpaceOnUse" id="clipPath5">
        <path d="M657 89 L679 89 L679 131 L657 131 L657 89 Z" />
      </clipPath>
      <clipPath clipPathUnits="userSpaceOnUse" id="clipPath6">
        <path d="M678 89 L725 89 L725 113 L678 113 L678 89 Z" />
      </clipPath>
      <clipPath clipPathUnits="userSpaceOnUse" id="clipPath7">
        <path d="M657 209 L679 209 L679 251 L657 251 L657 209 Z" />
      </clipPath>
      <clipPath clipPathUnits="userSpaceOnUse" id="clipPath8">
        <path d="M678 209 L724 209 L724 233 L678 233 L678 209 Z" />
      </clipPath>
      <clipPath clipPathUnits="userSpaceOnUse" id="clipPath9">
        <path d="M657 329 L679 329 L679 371 L657 371 L657 329 Z" />
      </clipPath>
      <clipPath clipPathUnits="userSpaceOnUse" id="clipPath10">
        <path d="M678 329 L725 329 L725 353 L678 353 L678 329 Z" />
      </clipPath>
      <clipPath clipPathUnits="userSpaceOnUse" id="clipPath11">
        <path d="M657 570 L679 570 L679 612 L657 612 L657 570 Z" />
      </clipPath>
      <clipPath clipPathUnits="userSpaceOnUse" id="clipPath12">
        <path d="M678 570 L725 570 L725 594 L678 594 L678 570 Z" />
      </clipPath>
      <clipPath clipPathUnits="userSpaceOnUse" id="clipPath13">
        <path d="M657 910 L679 910 L679 952 L657 952 L657 910 Z" />
      </clipPath>
      <clipPath clipPathUnits="userSpaceOnUse" id="clipPath14">
        <path d="M678 910 L725 910 L725 934 L678 934 L678 910 Z" />
      </clipPath>
      <clipPath clipPathUnits="userSpaceOnUse" id="clipPath15">
        <path d="M657 1030 L679 1030 L679 1072 L657 1072 L657 1030 Z" />
      </clipPath>
      <clipPath clipPathUnits="userSpaceOnUse" id="clipPath16">
        <path d="M678 1030 L725 1030 L725 1054 L678 1054 L678 1030 Z" />
      </clipPath>
      <clipPath clipPathUnits="userSpaceOnUse" id="clipPath17">
        <path d="M657 1150 L679 1150 L679 1192 L657 1192 L657 1150 Z" />
      </clipPath>
      <clipPath clipPathUnits="userSpaceOnUse" id="clipPath18">
        <path d="M678 1150 L725 1150 L725 1174 L678 1174 L678 1150 Z" />
      </clipPath>
      <clipPath clipPathUnits="userSpaceOnUse" id="clipPath19">
        <path d="M657 139 L679 139 L679 181 L657 181 L657 139 Z" />
      </clipPath>
      <clipPath clipPathUnits="userSpaceOnUse" id="clipPath20">
        <path d="M678 139 L725 139 L725 163 L678 163 L678 139 Z" />
      </clipPath>
      <clipPath clipPathUnits="userSpaceOnUse" id="clipPath21">
        <path d="M657 257 L679 257 L679 299 L657 299 L657 257 Z" />
      </clipPath>
      <clipPath clipPathUnits="userSpaceOnUse" id="clipPath22">
        <path d="M678 257 L724 257 L724 281 L678 281 L678 257 Z" />
      </clipPath>
      <clipPath clipPathUnits="userSpaceOnUse" id="clipPath23">
        <path d="M657 443 L679 443 L679 485 L657 485 L657 443 Z" />
      </clipPath>
      <clipPath clipPathUnits="userSpaceOnUse" id="clipPath24">
        <path d="M678 443 L725 443 L725 467 L678 467 L678 443 Z" />
      </clipPath>
      <clipPath clipPathUnits="userSpaceOnUse" id="clipPath25">
        <path d="M657 630 L679 630 L679 672 L657 672 L657 630 Z" />
      </clipPath>
      <clipPath clipPathUnits="userSpaceOnUse" id="clipPath26">
        <path d="M678 630 L725 630 L725 654 L678 654 L678 630 Z" />
      </clipPath>
      <clipPath clipPathUnits="userSpaceOnUse" id="clipPath27">
        <path d="M657 970 L679 970 L679 1012 L657 1012 L657 970 Z" />
      </clipPath>
      <clipPath clipPathUnits="userSpaceOnUse" id="clipPath28">
        <path d="M678 970 L725 970 L725 994 L678 994 L678 970 Z" />
      </clipPath>
      <clipPath clipPathUnits="userSpaceOnUse" id="clipPath29">
        <path d="M657 1090 L679 1090 L679 1132 L657 1132 L657 1090 Z" />
      </clipPath>
      <clipPath clipPathUnits="userSpaceOnUse" id="clipPath30">
        <path d="M678 1090 L725 1090 L725 1114 L678 1114 L678 1090 Z" />
      </clipPath>
      <clipPath clipPathUnits="userSpaceOnUse" id="clipPath31">
        <path d="M657 1210 L679 1210 L679 1252 L657 1252 L657 1210 Z" />
      </clipPath>
      <clipPath clipPathUnits="userSpaceOnUse" id="clipPath32">
        <path d="M678 1210 L725 1210 L725 1234 L678 1234 L678 1210 Z" />
      </clipPath>
      <clipPath clipPathUnits="userSpaceOnUse" id="clipPath33">
        <path d="M471 9 L601 9 L601 61 L471 61 L471 9 Z" />
      </clipPath>
      <clipPath clipPathUnits="userSpaceOnUse" id="clipPath34">
        <path d="M471 9 L605 9 L605 61 L471 61 L471 9 Z" />
      </clipPath>
      <clipPath clipPathUnits="userSpaceOnUse" id="clipPath35">
        <path d="M471 9 L603 9 L603 61 L471 61 L471 9 Z" />
      </clipPath>
      <clipPath clipPathUnits="userSpaceOnUse" id="clipPath36">
        <path d="M471 9 L606 9 L606 61 L471 61 L471 9 Z" />
      </clipPath>
      <clipPath clipPathUnits="userSpaceOnUse" id="clipPath37">
        <path d="M530 59 L542 59 L542 1302 L530 1302 L530 59 Z" />
      </clipPath>
      <clipPath clipPathUnits="userSpaceOnUse" id="clipPath38">
        <path d="M525 714 L547 714 L547 756 L525 756 L525 714 Z" />
      </clipPath>
      <clipPath clipPathUnits="userSpaceOnUse" id="clipPath39">
        <path d="M546 714 L593 714 L593 738 L546 738 L546 714 Z" />
      </clipPath>
      <clipPath clipPathUnits="userSpaceOnUse" id="clipPath40">
        <path d="M525 398 L547 398 L547 440 L525 440 L525 398 Z" />
      </clipPath>
      <clipPath clipPathUnits="userSpaceOnUse" id="clipPath41">
        <path d="M546 398 L593 398 L593 422 L546 422 L546 398 Z" />
      </clipPath>
      <clipPath clipPathUnits="userSpaceOnUse" id="clipPath42">
        <path d="M525 790 L547 790 L547 832 L525 832 L525 790 Z" />
      </clipPath>
      <clipPath clipPathUnits="userSpaceOnUse" id="clipPath43">
        <path d="M546 790 L593 790 L593 814 L546 814 L546 790 Z" />
      </clipPath>
      <clipPath clipPathUnits="userSpaceOnUse" id="clipPath44">
        <path d="M736 9 L855 9 L855 61 L736 61 L736 9 Z" />
      </clipPath>
      <clipPath clipPathUnits="userSpaceOnUse" id="clipPath45">
        <path d="M736 9 L859 9 L859 61 L736 61 L736 9 Z" />
      </clipPath>
      <clipPath clipPathUnits="userSpaceOnUse" id="clipPath46">
        <path d="M736 9 L858 9 L858 61 L736 61 L736 9 Z" />
      </clipPath>
      <clipPath clipPathUnits="userSpaceOnUse" id="clipPath47">
        <path d="M789 59 L801 59 L801 1302 L789 1302 L789 59 Z" />
      </clipPath>
      <clipPath clipPathUnits="userSpaceOnUse" id="clipPath48">
        <path d="M784 518 L806 518 L806 560 L784 560 L784 518 Z" />
      </clipPath>
      <clipPath clipPathUnits="userSpaceOnUse" id="clipPath49">
        <path d="M805 518 L852 518 L852 542 L805 542 L805 518 Z" />
      </clipPath>
      <clipPath clipPathUnits="userSpaceOnUse" id="clipPath50">
        <path d="M784 850 L806 850 L806 892 L784 892 L784 850 Z" />
      </clipPath>
      <clipPath clipPathUnits="userSpaceOnUse" id="clipPath51">
        <path d="M805 850 L852 850 L852 874 L805 874 L805 850 Z" />
      </clipPath>
      <clipPath clipPathUnits="userSpaceOnUse" id="clipPath52">
        <path d="M58 9 L130 9 L130 41 L58 41 L58 9 Z" />
      </clipPath>
      <clipPath clipPathUnits="userSpaceOnUse" id="clipPath53">
        <path d="M58 9 L135 9 L135 41 L58 41 L58 9 Z" />
      </clipPath>
      <clipPath clipPathUnits="userSpaceOnUse" id="clipPath54">
        <path d="M88 39 L100 39 L100 1302 L88 1302 L88 39 Z" />
      </clipPath>
      <clipPath clipPathUnits="userSpaceOnUse" id="clipPath55">
        <path d="M-1 -1 L957 -1 L957 1312 L-1 1312 L-1 -1 Z" />
      </clipPath>
      <clipPath clipPathUnits="userSpaceOnUse" id="clipPath56">
        <path d="M203 68 L553 68 L553 92 L203 92 L203 68 Z" />
      </clipPath>
      <clipPath clipPathUnits="userSpaceOnUse" id="clipPath57">
        <path d="M92 85 L104 85 L104 96 L92 96 L92 85 Z" />
      </clipPath>
      <clipPath clipPathUnits="userSpaceOnUse" id="clipPath58">
        <path d="M214 184 L430 184 L430 208 L214 208 L214 184 Z" />
      </clipPath>
      <clipPath clipPathUnits="userSpaceOnUse" id="clipPath59">
        <path d="M92 205 L104 205 L104 216 L92 216 L92 205 Z" />
      </clipPath>
      <clipPath clipPathUnits="userSpaceOnUse" id="clipPath60">
        <path d="M217 303 L410 303 L410 327 L217 327 L217 303 Z" />
      </clipPath>
      <clipPath clipPathUnits="userSpaceOnUse" id="clipPath61">
        <path d="M92 325 L104 325 L104 336 L92 336 L92 325 Z" />
      </clipPath>
      <clipPath clipPathUnits="userSpaceOnUse" id="clipPath62">
        <path d="M137 490 L443 490 L443 514 L137 514 L137 490 Z" />
      </clipPath>
      <clipPath clipPathUnits="userSpaceOnUse" id="clipPath63">
        <path d="M92 514 L104 514 L104 525 L92 525 L92 514 Z" />
      </clipPath>
      <clipPath clipPathUnits="userSpaceOnUse" id="clipPath64">
        <path d="M223 544 L380 544 L380 568 L223 568 L223 544 Z" />
      </clipPath>
      <clipPath clipPathUnits="userSpaceOnUse" id="clipPath65">
        <path d="M92 566 L104 566 L104 577 L92 577 L92 566 Z" />
      </clipPath>
      <clipPath clipPathUnits="userSpaceOnUse" id="clipPath66">
        <path d="M90 663 L502 663 L502 726 L90 726 L90 663 Z" />
      </clipPath>
      <clipPath clipPathUnits="userSpaceOnUse" id="clipPath67">
        <path d="M92 710 L104 710 L104 721 L92 721 L92 710 Z" />
      </clipPath>
      <clipPath clipPathUnits="userSpaceOnUse" id="clipPath68">
        <path d="M132 822 L438 822 L438 846 L132 846 L132 822 Z" />
      </clipPath>
      <clipPath clipPathUnits="userSpaceOnUse" id="clipPath69">
        <path d="M92 846 L104 846 L104 857 L92 857 L92 846 Z" />
      </clipPath>
      <clipPath clipPathUnits="userSpaceOnUse" id="clipPath70">
        <path d="M210 884 L452 884 L452 908 L210 908 L210 884 Z" />
      </clipPath>
      <clipPath clipPathUnits="userSpaceOnUse" id="clipPath71">
        <path d="M92 906 L104 906 L104 917 L92 917 L92 906 Z" />
      </clipPath>
      <clipPath clipPathUnits="userSpaceOnUse" id="clipPath72">
        <path d="M155 1007 L937 1007 L937 1031 L155 1031 L155 1007 Z" />
      </clipPath>
      <clipPath clipPathUnits="userSpaceOnUse" id="clipPath73">
        <path d="M92 1026 L104 1026 L104 1037 L92 1037 L92 1026 Z" />
      </clipPath>
      <clipPath clipPathUnits="userSpaceOnUse" id="clipPath74">
        <path d="M214 1124 L363 1124 L363 1148 L214 1148 L214 1124 Z" />
      </clipPath>
      <clipPath clipPathUnits="userSpaceOnUse" id="clipPath75">
        <path d="M92 1146 L104 1146 L104 1157 L92 1157 L92 1146 Z" />
      </clipPath>
      <clipPath clipPathUnits="userSpaceOnUse" id="clipPath76">
        <path d="M192 113 L548 113 L548 137 L192 137 L192 113 Z" />
      </clipPath>
      <clipPath clipPathUnits="userSpaceOnUse" id="clipPath77">
        <path d="M649 135 L661 135 L661 146 L649 146 L649 135 Z" />
      </clipPath>
      <clipPath clipPathUnits="userSpaceOnUse" id="clipPath78">
        <path d="M198 233 L519 233 L519 257 L198 257 L198 233 Z" />
      </clipPath>
      <clipPath clipPathUnits="userSpaceOnUse" id="clipPath79">
        <path d="M649 253 L661 253 L661 264 L649 264 L649 253 Z" />
      </clipPath>
      <clipPath clipPathUnits="userSpaceOnUse" id="clipPath80">
        <path d="M23 372 L774 372 L774 396 L23 396 L23 372 Z" />
      </clipPath>
      <clipPath clipPathUnits="userSpaceOnUse" id="clipPath81">
        <path d="M517 394 L529 394 L529 405 L517 405 L517 394 Z" />
      </clipPath>
      <clipPath clipPathUnits="userSpaceOnUse" id="clipPath82">
        <path d="M185 413 L689 413 L689 437 L185 437 L185 413 Z" />
      </clipPath>
      <clipPath clipPathUnits="userSpaceOnUse" id="clipPath83">
        <path d="M649 439 L661 439 L661 450 L649 450 L649 439 Z" />
      </clipPath>
      <clipPath clipPathUnits="userSpaceOnUse" id="clipPath84">
        <path d="M192 608 L595 608 L595 632 L192 632 L192 608 Z" />
      </clipPath>
      <clipPath clipPathUnits="userSpaceOnUse" id="clipPath85">
        <path d="M649 626 L661 626 L661 637 L649 637 L649 626 Z" />
      </clipPath>
      <clipPath clipPathUnits="userSpaceOnUse" id="clipPath86">
        <path d="M517 786 L529 786 L529 797 L517 797 L517 786 Z" />
      </clipPath>
      <clipPath clipPathUnits="userSpaceOnUse" id="clipPath87">
        <path d="M190 942 L606 942 L606 966 L190 966 L190 942 Z" />
      </clipPath>
      <clipPath clipPathUnits="userSpaceOnUse" id="clipPath88">
        <path d="M649 966 L661 966 L661 977 L649 977 L649 966 Z" />
      </clipPath>
      <clipPath clipPathUnits="userSpaceOnUse" id="clipPath89">
        <path d="M186 1065 L631 1065 L631 1089 L186 1089 L186 1065 Z" />
      </clipPath>
      <clipPath clipPathUnits="userSpaceOnUse" id="clipPath90">
        <path d="M649 1086 L661 1086 L661 1097 L649 1097 L649 1086 Z" />
      </clipPath>
      <clipPath clipPathUnits="userSpaceOnUse" id="clipPath91">
        <path d="M196 1187 L520 1187 L520 1211 L196 1211 L196 1187 Z" />
      </clipPath>
      <clipPath clipPathUnits="userSpaceOnUse" id="clipPath92">
        <path d="M649 1206 L661 1206 L661 1217 L649 1217 L649 1206 Z" />
      </clipPath>
    </defs>
    <g font-size="19" fill="rgb(255,245,181)" font-family="'Lucida Sans'" stroke-linejoin="round" stroke="rgb(255,245,181)" stroke-width="0" stroke-miterlimit="0">
      <rect x="610" y="10" clip-path="url(#clipPath1)" width="117" height="50" stroke="none" />
    </g>
    <g stroke-width="0.1" font-size="19" font-family="'Lucida Sans'" stroke-linecap="butt">
      <rect x="610" y="10" clip-path="url(#clipPath1)" fill="none" width="116" height="49" />
      <text xml:space="preserve" x="645" y="21" clip-path="url(#clipPath2)" stroke="none">steve</text>
      <text xml:space="preserve" x="663" y="43" clip-path="url(#clipPath3)" stroke="none">: </text>
      <text xml:space="preserve" x="615" y="65" clip-path="url(#clipPath2)" stroke="none">actCoordin...</text>
      <line clip-path="url(#clipPath4)" fill="none" x1="667" x2="667" y1="60" y2="1301" stroke-dasharray="10,10" stroke-width="1.1" />
    </g>
    <g stroke-linecap="butt" font-size="19" fill="rgb(77,137,20)" font-family="'Lucida Sans'" stroke-dasharray="10,10" stroke="rgb(77,137,20)" stroke-width="1.1">
      <rect x="658" y="90" clip-path="url(#clipPath5)" width="20" height="40" stroke="none" />
      <rect x="659" y="91" clip-path="url(#clipPath5)" fill="none" width="18" stroke-dasharray="none" height="38" stroke-width="2.1" />
      <text x="679" y="109" clip-path="url(#clipPath6)" stroke-dasharray="none" stroke="none" stroke-width="2.1" xml:space="preserve">tsi10</text>
      <rect x="658" y="210" clip-path="url(#clipPath7)" width="20" stroke-dasharray="none" height="40" stroke="none" stroke-width="2.1" />
      <rect x="659" y="211" clip-path="url(#clipPath7)" fill="none" width="18" stroke-dasharray="none" height="38" stroke-width="2.1" />
      <text x="679" y="229" clip-path="url(#clipPath8)" stroke-dasharray="none" stroke="none" stroke-width="2.1" xml:space="preserve">tsi11</text>
      <rect x="658" y="330" clip-path="url(#clipPath9)" width="20" stroke-dasharray="none" height="40" stroke="none" stroke-width="2.1" />
      <rect x="659" y="331" clip-path="url(#clipPath9)" fill="none" width="18" stroke-dasharray="none" height="38" stroke-width="2.1" />
      <text x="679" y="349" clip-path="url(#clipPath10)" stroke-dasharray="none" stroke="none" stroke-width="2.1" xml:space="preserve">tsi12</text>
      <rect x="658" y="571" clip-path="url(#clipPath11)" width="20" stroke-dasharray="none" height="40" stroke="none" stroke-width="2.1" />
      <rect x="659" y="572" clip-path="url(#clipPath11)" fill="none" width="18" stroke-dasharray="none" height="38" stroke-width="2.1" />
      <text x="679" y="590" clip-path="url(#clipPath12)" stroke-dasharray="none" stroke="none" stroke-width="2.1" xml:space="preserve">tsi14</text>
      <rect x="658" y="911" clip-path="url(#clipPath13)" width="20" stroke-dasharray="none" height="40" stroke="none" stroke-width="2.1" />
      <rect x="659" y="912" clip-path="url(#clipPath13)" fill="none" width="18" stroke-dasharray="none" height="38" stroke-width="2.1" />
      <text x="679" y="930" clip-path="url(#clipPath14)" stroke-dasharray="none" stroke="none" stroke-width="2.1" xml:space="preserve">tsi17</text>
      <rect x="658" y="1031" clip-path="url(#clipPath15)" width="20" stroke-dasharray="none" height="40" stroke="none" stroke-width="2.1" />
      <rect x="659" y="1032" clip-path="url(#clipPath15)" fill="none" width="18" stroke-dasharray="none" height="38" stroke-width="2.1" />
      <text x="679" y="1050" clip-path="url(#clipPath16)" stroke-dasharray="none" stroke="none" stroke-width="2.1" xml:space="preserve">tsi18</text>
      <rect x="658" y="1151" clip-path="url(#clipPath17)" width="20" stroke-dasharray="none" height="40" stroke="none" stroke-width="2.1" />
      <rect x="659" y="1152" clip-path="url(#clipPath17)" fill="none" width="18" stroke-dasharray="none" height="38" stroke-width="2.1" />
      <text x="679" y="1170" clip-path="url(#clipPath18)" stroke-dasharray="none" stroke="none" stroke-width="2.1" xml:space="preserve">tsi19</text>
    </g>
    <g stroke-linecap="butt" font-size="19" fill="rgb(204,242,166)" font-family="'Lucida Sans'" stroke="rgb(204,242,166)" stroke-width="2.1">
      <rect x="658" y="140" clip-path="url(#clipPath19)" width="20" height="40" stroke="none" />
      <rect x="658" y="140" clip-path="url(#clipPath19)" fill="none" width="19" height="39" stroke="rgb(209,209,209)" stroke-width="0.1" />
      <text x="679" y="159" clip-path="url(#clipPath20)" fill="rgb(77,137,20)" stroke="none" stroke-width="0.1" xml:space="preserve">tsi10</text>
      <rect x="658" y="258" clip-path="url(#clipPath21)" width="20" height="40" stroke="none" stroke-width="0.1" />
      <rect x="658" y="258" clip-path="url(#clipPath21)" fill="none" width="19" height="39" stroke="rgb(209,209,209)" stroke-width="0.1" />
      <text x="679" y="277" clip-path="url(#clipPath22)" fill="rgb(77,137,20)" stroke="none" stroke-width="0.1" xml:space="preserve">tsi11</text>
      <rect x="658" y="444" clip-path="url(#clipPath23)" width="20" height="40" stroke="none" stroke-width="0.1" />
      <rect x="658" y="444" clip-path="url(#clipPath23)" fill="none" width="19" height="39" stroke="rgb(209,209,209)" stroke-width="0.1" />
      <text x="679" y="463" clip-path="url(#clipPath24)" fill="rgb(77,137,20)" stroke="none" stroke-width="0.1" xml:space="preserve">tsi12</text>
      <rect x="658" y="631" clip-path="url(#clipPath25)" width="20" height="40" stroke="none" stroke-width="0.1" />
      <rect x="658" y="631" clip-path="url(#clipPath25)" fill="none" width="19" height="39" stroke="rgb(209,209,209)" stroke-width="0.1" />
      <text x="679" y="650" clip-path="url(#clipPath26)" fill="rgb(77,137,20)" stroke="none" stroke-width="0.1" xml:space="preserve">tsi14</text>
      <rect x="658" y="971" clip-path="url(#clipPath27)" width="20" height="40" stroke="none" stroke-width="0.1" />
      <rect x="658" y="971" clip-path="url(#clipPath27)" fill="none" width="19" height="39" stroke="rgb(209,209,209)" stroke-width="0.1" />
      <text x="679" y="990" clip-path="url(#clipPath28)" fill="rgb(77,137,20)" stroke="none" stroke-width="0.1" xml:space="preserve">tsi17</text>
      <rect x="658" y="1091" clip-path="url(#clipPath29)" width="20" height="40" stroke="none" stroke-width="0.1" />
      <rect x="658" y="1091" clip-path="url(#clipPath29)" fill="none" width="19" height="39" stroke="rgb(209,209,209)" stroke-width="0.1" />
      <text x="679" y="1110" clip-path="url(#clipPath30)" fill="rgb(77,137,20)" stroke="none" stroke-width="0.1" xml:space="preserve">tsi18</text>
      <rect x="658" y="1211" clip-path="url(#clipPath31)" width="20" height="40" stroke="none" stroke-width="0.1" />
      <rect x="658" y="1211" clip-path="url(#clipPath31)" fill="none" width="19" height="39" stroke="rgb(209,209,209)" stroke-width="0.1" />
      <text x="679" y="1230" clip-path="url(#clipPath32)" fill="rgb(77,137,20)" stroke="none" stroke-width="0.1" xml:space="preserve">tsi19</text>
      <rect x="472" y="10" clip-path="url(#clipPath33)" fill="rgb(255,245,181)" width="128" height="50" stroke="none" stroke-width="0.1" />
      <rect x="472" y="10" clip-path="url(#clipPath33)" fill="none" width="127" height="49" stroke="black" stroke-width="0.1" />
      <text x="512" y="21" clip-path="url(#clipPath34)" fill="black" stroke="none" stroke-width="0.1" xml:space="preserve">tango</text>
      <text x="531" y="43" clip-path="url(#clipPath35)" fill="black" stroke="none" stroke-width="0.1" xml:space="preserve">: </text>
      <text x="475" y="65" clip-path="url(#clipPath36)" fill="black" stroke="none" stroke-width="0.1" xml:space="preserve">actComCom...</text>
    </g>
    <g stroke-width="1.1" font-size="19" stroke-dasharray="10,10" font-family="'Lucida Sans'" stroke-linecap="butt">
      <line clip-path="url(#clipPath37)" fill="none" x1="535" x2="535" y1="60" y2="1301" />
      <rect x="526" y="715" clip-path="url(#clipPath38)" fill="rgb(77,137,20)" width="20" height="40" stroke="none" />
    </g>
    <g stroke-linecap="butt" font-size="19" fill="rgb(77,137,20)" font-family="'Lucida Sans'" stroke="rgb(77,137,20)" stroke-width="2.1">
      <rect x="527" y="716" clip-path="url(#clipPath38)" fill="none" width="18" height="38" />
      <text xml:space="preserve" x="547" y="734" clip-path="url(#clipPath39)" stroke="none">tsi15</text>
      <rect x="526" y="399" clip-path="url(#clipPath40)" fill="rgb(204,242,166)" width="20" height="40" stroke="none" />
      <rect x="526" y="399" clip-path="url(#clipPath40)" fill="none" width="19" height="39" stroke="rgb(209,209,209)" stroke-width="0.1" />
      <text x="547" y="418" clip-path="url(#clipPath41)" stroke="none" stroke-width="0.1" xml:space="preserve">tsi12</text>
      <rect x="526" y="791" clip-path="url(#clipPath42)" fill="rgb(204,242,166)" width="20" height="40" stroke="none" stroke-width="0.1" />
      <rect x="526" y="791" clip-path="url(#clipPath42)" fill="none" width="19" height="39" stroke="rgb(209,209,209)" stroke-width="0.1" />
      <text x="547" y="810" clip-path="url(#clipPath43)" stroke="none" stroke-width="0.1" xml:space="preserve">tsi15</text>
      <rect x="737" y="10" clip-path="url(#clipPath44)" fill="rgb(255,245,181)" width="117" height="50" stroke="none" stroke-width="0.1" />
      <rect x="737" y="10" clip-path="url(#clipPath44)" fill="none" width="116" height="49" stroke="black" stroke-width="0.1" />
      <text x="758" y="32" clip-path="url(#clipPath45)" fill="black" stroke="none" stroke-width="0.1" xml:space="preserve">theClock</text>
      <text x="741" y="54" clip-path="url(#clipPath46)" fill="black" stroke="none" stroke-width="0.1" xml:space="preserve">: actActivator</text>
    </g>
    <g stroke-width="1.1" font-size="19" stroke-dasharray="10,10" font-family="'Lucida Sans'" stroke-linecap="butt">
      <line clip-path="url(#clipPath47)" fill="none" x1="794" x2="794" y1="60" y2="1301" />
      <rect x="785" y="519" clip-path="url(#clipPath48)" fill="rgb(77,137,20)" width="20" height="40" stroke="none" />
    </g>
    <g stroke-linecap="butt" font-size="19" fill="rgb(77,137,20)" font-family="'Lucida Sans'" stroke="rgb(77,137,20)" stroke-width="2.1">
      <rect x="786" y="520" clip-path="url(#clipPath48)" fill="none" width="18" height="38" />
      <text xml:space="preserve" x="806" y="538" clip-path="url(#clipPath49)" stroke="none">tsi13</text>
      <rect x="785" y="851" clip-path="url(#clipPath50)" width="20" height="40" stroke="none" />
      <rect x="786" y="852" clip-path="url(#clipPath50)" fill="none" width="18" height="38" />
      <text xml:space="preserve" x="806" y="870" clip-path="url(#clipPath51)" stroke="none">tsi16</text>
      <rect x="59" y="10" clip-path="url(#clipPath52)" fill="rgb(238,201,142)" width="70" height="30" stroke="none" />
      <rect x="59" y="10" clip-path="url(#clipPath52)" fill="none" width="69" height="29" stroke="black" stroke-width="0.1" />
      <text x="62" y="33" clip-path="url(#clipPath53)" fill="black" stroke="none" stroke-width="0.1" xml:space="preserve">System</text>
    </g>
    <g stroke-width="1.1" font-size="19" stroke-dasharray="10,10" font-family="'Lucida Sans'" stroke-linecap="butt">
      <line clip-path="url(#clipPath54)" fill="none" x1="93" x2="93" y1="40" y2="1301" />
    </g>
    <g stroke-linecap="butt" font-size="19" fill="rgb(136,136,136)" font-family="'Lucida Sans'" stroke="rgb(136,136,136)" stroke-width="2.1">
      <line clip-path="url(#clipPath55)" fill="none" x1="658" x2="94" y1="90" y2="90" />
      <text x="204" y="88" clip-path="url(#clipPath56)" fill="black" stroke="none" xml:space="preserve">oeLogin(steve,pwdMessirExcalibur2017)</text>
      <line clip-path="url(#clipPath57)" fill="none" x1="101" x2="94" y1="87" y2="90" />
      <line clip-path="url(#clipPath57)" fill="none" x1="94" x2="101" y1="90" y2="93" />
      <line clip-path="url(#clipPath55)" fill="none" x1="658" x2="94" y1="210" y2="210" />
      <text x="215" y="204" clip-path="url(#clipPath58)" fill="black" stroke="none" xml:space="preserve">oeGetCrisisSet(pending)</text>
      <line clip-path="url(#clipPath59)" fill="none" x1="101" x2="94" y1="207" y2="210" />
      <line clip-path="url(#clipPath59)" fill="none" x1="94" x2="101" y1="210" y2="213" />
      <line clip-path="url(#clipPath55)" fill="none" x1="658" x2="94" y1="330" y2="330" />
      <text x="218" y="323" clip-path="url(#clipPath60)" fill="black" stroke="none" xml:space="preserve">oeSetCrisisHandler(1)</text>
      <line clip-path="url(#clipPath61)" fill="none" x1="101" x2="94" y1="327" y2="330" />
      <line clip-path="url(#clipPath61)" fill="none" x1="94" x2="101" y1="330" y2="333" />
      <line clip-path="url(#clipPath55)" fill="none" x1="785" x2="94" y1="519" y2="519" />
      <text x="138" y="510" clip-path="url(#clipPath62)" fill="black" stroke="none" xml:space="preserve">oeSetClock(2017:11:26 - 10:45:00)</text>
      <line clip-path="url(#clipPath63)" fill="none" x1="101" x2="94" y1="516" y2="519" />
      <line clip-path="url(#clipPath63)" fill="none" x1="94" x2="101" y1="519" y2="522" />
      <line clip-path="url(#clipPath55)" fill="none" x1="658" x2="94" y1="571" y2="571" />
      <text x="224" y="564" clip-path="url(#clipPath64)" fill="black" stroke="none" xml:space="preserve">oeValidateAlert(1)</text>
      <line clip-path="url(#clipPath65)" fill="none" x1="101" x2="94" y1="568" y2="571" />
      <line clip-path="url(#clipPath65)" fill="none" x1="94" x2="101" y1="571" y2="574" />
      <line clip-path="url(#clipPath55)" fill="none" x1="526" x2="94" y1="715" y2="715" />
      <text x="134" y="691" clip-path="url(#clipPath66)" fill="black" stroke="none" xml:space="preserve">oeAlert(witness,2017:11:26,10:20:00,</text>
      <text x="93" y="713" clip-path="url(#clipPath66)" fill="black" stroke="none" xml:space="preserve">+3524666445000,49.627095:6.160251,A car...</text>
      <line clip-path="url(#clipPath67)" fill="none" x1="101" x2="94" y1="712" y2="715" />
      <line clip-path="url(#clipPath67)" fill="none" x1="94" x2="101" y1="715" y2="718" />
      <line clip-path="url(#clipPath55)" fill="none" x1="785" x2="94" y1="851" y2="851" />
      <text x="133" y="842" clip-path="url(#clipPath68)" fill="black" stroke="none" xml:space="preserve">oeSetClock(2017:11:26 - 12:45:00)</text>
      <line clip-path="url(#clipPath69)" fill="none" x1="101" x2="94" y1="848" y2="851" />
      <line clip-path="url(#clipPath69)" fill="none" x1="94" x2="101" y1="851" y2="854" />
      <line clip-path="url(#clipPath55)" fill="none" x1="658" x2="94" y1="911" y2="911" />
      <text x="211" y="904" clip-path="url(#clipPath70)" fill="black" stroke="none" xml:space="preserve">oeSetCrisisStatus(1,solved)</text>
      <line clip-path="url(#clipPath71)" fill="none" x1="101" x2="94" y1="908" y2="911" />
      <line clip-path="url(#clipPath71)" fill="none" x1="94" x2="101" y1="911" y2="914" />
      <line clip-path="url(#clipPath55)" fill="none" x1="658" x2="94" y1="1031" y2="1031" />
      <text x="156" y="1027" clip-path="url(#clipPath72)" fill="black" stroke="none" xml:space="preserve">oeReportOnCrisis(1,3 victims sent to hospital, 2 cars evacuated and 4 rescue unit mobilized)</text>
      <line clip-path="url(#clipPath73)" fill="none" x1="101" x2="94" y1="1028" y2="1031" />
      <line clip-path="url(#clipPath73)" fill="none" x1="94" x2="101" y1="1031" y2="1034" />
      <line clip-path="url(#clipPath55)" fill="none" x1="658" x2="94" y1="1151" y2="1151" />
      <text x="215" y="1144" clip-path="url(#clipPath74)" fill="black" stroke="none" xml:space="preserve">oeCloseCrisis(1)</text>
      <line clip-path="url(#clipPath75)" fill="none" x1="101" x2="94" y1="1148" y2="1151" />
      <line clip-path="url(#clipPath75)" fill="none" x1="94" x2="101" y1="1151" y2="1154" />
      <line clip-path="url(#clipPath55)" fill="none" x1="658" x2="94" y1="140" y2="140" stroke-dasharray="5,5" />
      <text x="193" y="133" clip-path="url(#clipPath76)" fill="black" stroke-dasharray="5,5" stroke="none" xml:space="preserve">ieMessage(You are logged ! Welcome ...)</text>
      <line clip-path="url(#clipPath77)" fill="none" x1="651" x2="658" y1="143" y2="140" />
      <line clip-path="url(#clipPath77)" fill="none" x1="658" x2="651" y1="140" y2="137" />
      <line clip-path="url(#clipPath55)" fill="none" x1="658" x2="94" y1="258" y2="258" stroke-dasharray="5,5" />
      <text x="199" y="253" clip-path="url(#clipPath78)" fill="black" stroke-dasharray="5,5" stroke="none" xml:space="preserve">ieSendACrisis(crisis with ID 1 details)</text>
      <line clip-path="url(#clipPath79)" fill="none" x1="651" x2="658" y1="261" y2="258" />
      <line clip-path="url(#clipPath79)" fill="none" x1="658" x2="651" y1="258" y2="255" />
      <line clip-path="url(#clipPath55)" fill="none" x1="526" x2="94" y1="399" y2="399" stroke-dasharray="5,5" />
      <text x="24" y="392" clip-path="url(#clipPath80)" fill="black" stroke-dasharray="5,5" stroke="none" xml:space="preserve">ieSmsSend(+3524666445252,The handling of your alert by our services is in progress !)</text>
      <line clip-path="url(#clipPath81)" fill="none" x1="519" x2="526" y1="402" y2="399" />
      <line clip-path="url(#clipPath81)" fill="none" x1="526" x2="519" y1="399" y2="396" />
      <line clip-path="url(#clipPath55)" fill="none" x1="658" x2="94" y1="444" y2="444" stroke-dasharray="5,5" />
      <text x="186" y="433" clip-path="url(#clipPath82)" fill="black" stroke-dasharray="5,5" stroke="none" xml:space="preserve">ieMessage(You are now considered as handling the crisis !)</text>
      <line clip-path="url(#clipPath83)" fill="none" x1="651" x2="658" y1="447" y2="444" />
      <line clip-path="url(#clipPath83)" fill="none" x1="658" x2="651" y1="444" y2="441" />
      <line clip-path="url(#clipPath55)" fill="none" x1="658" x2="94" y1="631" y2="631" stroke-dasharray="5,5" />
      <text x="193" y="628" clip-path="url(#clipPath84)" fill="black" stroke-dasharray="5,5" stroke="none" xml:space="preserve">ieMessage(The Alert is now declared as valid !)</text>
      <line clip-path="url(#clipPath85)" fill="none" x1="651" x2="658" y1="634" y2="631" />
      <line clip-path="url(#clipPath85)" fill="none" x1="658" x2="651" y1="631" y2="628" />
      <line clip-path="url(#clipPath55)" fill="none" x1="526" x2="94" y1="791" y2="791" stroke-dasharray="5,5" />
      <line clip-path="url(#clipPath86)" fill="none" x1="519" x2="526" y1="794" y2="791" />
      <line clip-path="url(#clipPath86)" fill="none" x1="526" x2="519" y1="791" y2="788" />
      <line clip-path="url(#clipPath55)" fill="none" x1="658" x2="94" y1="971" y2="971" stroke-dasharray="5,5" />
      <text x="191" y="962" clip-path="url(#clipPath87)" fill="black" stroke-dasharray="5,5" stroke="none" xml:space="preserve">ieMessage(The crisis status has been updated !)</text>
      <line clip-path="url(#clipPath88)" fill="none" x1="651" x2="658" y1="974" y2="971" />
      <line clip-path="url(#clipPath88)" fill="none" x1="658" x2="651" y1="971" y2="968" />
      <line clip-path="url(#clipPath55)" fill="none" x1="658" x2="94" y1="1091" y2="1091" stroke-dasharray="5,5" />
      <text x="187" y="1085" clip-path="url(#clipPath89)" fill="black" stroke-dasharray="5,5" stroke="none" xml:space="preserve">ieMessage(The crisis comment has been updated !)</text>
      <line clip-path="url(#clipPath90)" fill="none" x1="651" x2="658" y1="1094" y2="1091" />
      <line clip-path="url(#clipPath90)" fill="none" x1="658" x2="651" y1="1091" y2="1088" />
      <line clip-path="url(#clipPath55)" fill="none" x1="658" x2="94" y1="1211" y2="1211" stroke-dasharray="5,5" />
      <text x="197" y="1207" clip-path="url(#clipPath91)" fill="black" stroke-dasharray="5,5" stroke="none" xml:space="preserve">ieMessage(The crisis is now closed !)</text>
      <line clip-path="url(#clipPath92)" fill="none" x1="651" x2="658" y1="1214" y2="1211" />
      <line clip-path="url(#clipPath92)" fill="none" x1="658" x2="651" y1="1211" y2="1208" />
    </g>
  </g>
</svg>

