<?xml version="1.0" encoding="UTF-8"?>
<svg xmlns="http://www.w3.org/2000/svg" xmlns:xlink="http://www.w3.org/1999/xlink" stroke-dasharray="none" shape-rendering="auto" font-family="'Dialog'" width="1401" text-rendering="auto" fill-opacity="1" contentScriptType="text/ecmascript" color-interpolation="auto" color-rendering="auto" preserveAspectRatio="xMidYMid meet" font-size="12" viewBox="0 0 1401 1010" fill="black" stroke="black" image-rendering="auto" stroke-miterlimit="10" zoomAndPan="magnify" version="1.0" stroke-linecap="square" stroke-linejoin="miter" contentStyleType="text/css" font-style="normal" height="1010" stroke-width="1" stroke-dashoffset="0" font-weight="normal" stroke-opacity="1">
  <!--Generated by the Batik Graphics2D SVG Generator-->
  <defs id="genericDefs" />
  <g>
    <defs id="defs1">
      <clipPath clipPathUnits="userSpaceOnUse" id="clipPath1">
        <path d="M900 9 L1007 9 L1007 61 L900 61 L900 9 Z" />
      </clipPath>
      <clipPath clipPathUnits="userSpaceOnUse" id="clipPath2">
        <path d="M900 9 L1011 9 L1011 61 L900 61 L900 9 Z" />
      </clipPath>
      <clipPath clipPathUnits="userSpaceOnUse" id="clipPath3">
        <path d="M900 9 L1009 9 L1009 61 L900 61 L900 9 Z" />
      </clipPath>
      <clipPath clipPathUnits="userSpaceOnUse" id="clipPath4">
        <path d="M947 59 L959 59 L959 1001 L947 1001 L947 59 Z" />
      </clipPath>
      <clipPath clipPathUnits="userSpaceOnUse" id="clipPath5">
        <path d="M942 89 L964 89 L964 131 L942 131 L942 89 Z" />
      </clipPath>
      <clipPath clipPathUnits="userSpaceOnUse" id="clipPath6">
        <path d="M963 89 L1010 89 L1010 113 L963 113 L963 89 Z" />
      </clipPath>
      <clipPath clipPathUnits="userSpaceOnUse" id="clipPath7">
        <path d="M1015 9 L1114 9 L1114 61 L1015 61 L1015 9 Z" />
      </clipPath>
      <clipPath clipPathUnits="userSpaceOnUse" id="clipPath8">
        <path d="M1015 9 L1118 9 L1118 61 L1015 61 L1015 9 Z" />
      </clipPath>
      <clipPath clipPathUnits="userSpaceOnUse" id="clipPath9">
        <path d="M1015 9 L1116 9 L1116 61 L1015 61 L1015 9 Z" />
      </clipPath>
      <clipPath clipPathUnits="userSpaceOnUse" id="clipPath10">
        <path d="M1015 9 L1117 9 L1117 61 L1015 61 L1015 9 Z" />
      </clipPath>
      <clipPath clipPathUnits="userSpaceOnUse" id="clipPath11">
        <path d="M1058 59 L1070 59 L1070 1001 L1058 1001 L1058 59 Z" />
      </clipPath>
      <clipPath clipPathUnits="userSpaceOnUse" id="clipPath12">
        <path d="M1053 149 L1075 149 L1075 191 L1053 191 L1053 149 Z" />
      </clipPath>
      <clipPath clipPathUnits="userSpaceOnUse" id="clipPath13">
        <path d="M1074 149 L1121 149 L1121 173 L1074 173 L1074 149 Z" />
      </clipPath>
      <clipPath clipPathUnits="userSpaceOnUse" id="clipPath14">
        <path d="M1053 555 L1075 555 L1075 597 L1053 597 L1053 555 Z" />
      </clipPath>
      <clipPath clipPathUnits="userSpaceOnUse" id="clipPath15">
        <path d="M1074 555 L1121 555 L1121 579 L1074 579 L1074 555 Z" />
      </clipPath>
      <clipPath clipPathUnits="userSpaceOnUse" id="clipPath16">
        <path d="M1053 789 L1075 789 L1075 831 L1053 831 L1053 789 Z" />
      </clipPath>
      <clipPath clipPathUnits="userSpaceOnUse" id="clipPath17">
        <path d="M1074 789 L1121 789 L1121 813 L1074 813 L1074 789 Z" />
      </clipPath>
      <clipPath clipPathUnits="userSpaceOnUse" id="clipPath18">
        <path d="M1122 9 L1251 9 L1251 61 L1122 61 L1122 9 Z" />
      </clipPath>
      <clipPath clipPathUnits="userSpaceOnUse" id="clipPath19">
        <path d="M1122 9 L1253 9 L1253 61 L1122 61 L1122 9 Z" />
      </clipPath>
      <clipPath clipPathUnits="userSpaceOnUse" id="clipPath20">
        <path d="M1122 9 L1254 9 L1254 61 L1122 61 L1122 9 Z" />
      </clipPath>
      <clipPath clipPathUnits="userSpaceOnUse" id="clipPath21">
        <path d="M1180 59 L1192 59 L1192 1001 L1180 1001 L1180 59 Z" />
      </clipPath>
      <clipPath clipPathUnits="userSpaceOnUse" id="clipPath22">
        <path d="M1175 209 L1197 209 L1197 251 L1175 251 L1175 209 Z" />
      </clipPath>
      <clipPath clipPathUnits="userSpaceOnUse" id="clipPath23">
        <path d="M1196 209 L1243 209 L1243 233 L1196 233 L1196 209 Z" />
      </clipPath>
      <clipPath clipPathUnits="userSpaceOnUse" id="clipPath24">
        <path d="M1175 329 L1197 329 L1197 371 L1175 371 L1175 329 Z" />
      </clipPath>
      <clipPath clipPathUnits="userSpaceOnUse" id="clipPath25">
        <path d="M1196 329 L1243 329 L1243 353 L1196 353 L1196 329 Z" />
      </clipPath>
      <clipPath clipPathUnits="userSpaceOnUse" id="clipPath26">
        <path d="M1175 449 L1197 449 L1197 491 L1175 491 L1175 449 Z" />
      </clipPath>
      <clipPath clipPathUnits="userSpaceOnUse" id="clipPath27">
        <path d="M1196 449 L1243 449 L1243 473 L1196 473 L1196 449 Z" />
      </clipPath>
      <clipPath clipPathUnits="userSpaceOnUse" id="clipPath28">
        <path d="M1175 255 L1197 255 L1197 297 L1175 297 L1175 255 Z" />
      </clipPath>
      <clipPath clipPathUnits="userSpaceOnUse" id="clipPath29">
        <path d="M1196 255 L1243 255 L1243 279 L1196 279 L1196 255 Z" />
      </clipPath>
      <clipPath clipPathUnits="userSpaceOnUse" id="clipPath30">
        <path d="M1175 374 L1197 374 L1197 416 L1175 416 L1175 374 Z" />
      </clipPath>
      <clipPath clipPathUnits="userSpaceOnUse" id="clipPath31">
        <path d="M1196 374 L1243 374 L1243 398 L1196 398 L1196 374 Z" />
      </clipPath>
      <clipPath clipPathUnits="userSpaceOnUse" id="clipPath32">
        <path d="M1175 499 L1197 499 L1197 541 L1175 541 L1175 499 Z" />
      </clipPath>
      <clipPath clipPathUnits="userSpaceOnUse" id="clipPath33">
        <path d="M1196 499 L1243 499 L1243 523 L1196 523 L1196 499 Z" />
      </clipPath>
      <clipPath clipPathUnits="userSpaceOnUse" id="clipPath34">
        <path d="M1175 849 L1197 849 L1197 891 L1175 891 L1175 849 Z" />
      </clipPath>
      <clipPath clipPathUnits="userSpaceOnUse" id="clipPath35">
        <path d="M1196 849 L1243 849 L1243 873 L1196 873 L1196 849 Z" />
      </clipPath>
      <clipPath clipPathUnits="userSpaceOnUse" id="clipPath36">
        <path d="M1259 9 L1392 9 L1392 61 L1259 61 L1259 9 Z" />
      </clipPath>
      <clipPath clipPathUnits="userSpaceOnUse" id="clipPath37">
        <path d="M1259 9 L1396 9 L1396 61 L1259 61 L1259 9 Z" />
      </clipPath>
      <clipPath clipPathUnits="userSpaceOnUse" id="clipPath38">
        <path d="M1259 9 L1394 9 L1394 61 L1259 61 L1259 9 Z" />
      </clipPath>
      <clipPath clipPathUnits="userSpaceOnUse" id="clipPath39">
        <path d="M1259 9 L1397 9 L1397 61 L1259 61 L1259 9 Z" />
      </clipPath>
      <clipPath clipPathUnits="userSpaceOnUse" id="clipPath40">
        <path d="M1319 59 L1331 59 L1331 1001 L1319 1001 L1319 59 Z" />
      </clipPath>
      <clipPath clipPathUnits="userSpaceOnUse" id="clipPath41">
        <path d="M1314 650 L1336 650 L1336 692 L1314 692 L1314 650 Z" />
      </clipPath>
      <clipPath clipPathUnits="userSpaceOnUse" id="clipPath42">
        <path d="M1335 650 L1382 650 L1382 674 L1335 674 L1335 650 Z" />
      </clipPath>
      <clipPath clipPathUnits="userSpaceOnUse" id="clipPath43">
        <path d="M1314 729 L1336 729 L1336 771 L1314 771 L1314 729 Z" />
      </clipPath>
      <clipPath clipPathUnits="userSpaceOnUse" id="clipPath44">
        <path d="M1335 729 L1382 729 L1382 753 L1335 753 L1335 729 Z" />
      </clipPath>
      <clipPath clipPathUnits="userSpaceOnUse" id="clipPath45">
        <path d="M761 9 L892 9 L892 61 L761 61 L761 9 Z" />
      </clipPath>
      <clipPath clipPathUnits="userSpaceOnUse" id="clipPath46">
        <path d="M761 9 L896 9 L896 61 L761 61 L761 9 Z" />
      </clipPath>
      <clipPath clipPathUnits="userSpaceOnUse" id="clipPath47">
        <path d="M761 9 L894 9 L894 61 L761 61 L761 9 Z" />
      </clipPath>
      <clipPath clipPathUnits="userSpaceOnUse" id="clipPath48">
        <path d="M820 59 L832 59 L832 1001 L820 1001 L820 59 Z" />
      </clipPath>
      <clipPath clipPathUnits="userSpaceOnUse" id="clipPath49">
        <path d="M815 909 L837 909 L837 951 L815 951 L815 909 Z" />
      </clipPath>
      <clipPath clipPathUnits="userSpaceOnUse" id="clipPath50">
        <path d="M836 909 L883 909 L883 933 L836 933 L836 909 Z" />
      </clipPath>
      <clipPath clipPathUnits="userSpaceOnUse" id="clipPath51">
        <path d="M58 9 L130 9 L130 41 L58 41 L58 9 Z" />
      </clipPath>
      <clipPath clipPathUnits="userSpaceOnUse" id="clipPath52">
        <path d="M58 9 L135 9 L135 41 L58 41 L58 9 Z" />
      </clipPath>
      <clipPath clipPathUnits="userSpaceOnUse" id="clipPath53">
        <path d="M88 39 L100 39 L100 1001 L88 1001 L88 39 Z" />
      </clipPath>
      <clipPath clipPathUnits="userSpaceOnUse" id="clipPath54">
        <path d="M-1 -1 L1402 -1 L1402 1011 L-1 1011 L-1 -1 Z" />
      </clipPath>
      <clipPath clipPathUnits="userSpaceOnUse" id="clipPath55">
        <path d="M393 63 L704 63 L704 87 L393 87 L393 63 Z" />
      </clipPath>
      <clipPath clipPathUnits="userSpaceOnUse" id="clipPath56">
        <path d="M92 85 L104 85 L104 96 L92 96 L92 85 Z" />
      </clipPath>
      <clipPath clipPathUnits="userSpaceOnUse" id="clipPath57">
        <path d="M395 126 L701 126 L701 150 L395 150 L395 126 Z" />
      </clipPath>
      <clipPath clipPathUnits="userSpaceOnUse" id="clipPath58">
        <path d="M92 145 L104 145 L104 156 L92 156 L92 145 Z" />
      </clipPath>
      <clipPath clipPathUnits="userSpaceOnUse" id="clipPath59">
        <path d="M390 181 L684 181 L684 205 L390 205 L390 181 Z" />
      </clipPath>
      <clipPath clipPathUnits="userSpaceOnUse" id="clipPath60">
        <path d="M92 205 L104 205 L104 216 L92 216 L92 205 Z" />
      </clipPath>
      <clipPath clipPathUnits="userSpaceOnUse" id="clipPath61">
        <path d="M388 302 L841 302 L841 326 L388 326 L388 302 Z" />
      </clipPath>
      <clipPath clipPathUnits="userSpaceOnUse" id="clipPath62">
        <path d="M92 325 L104 325 L104 336 L92 336 L92 325 Z" />
      </clipPath>
      <clipPath clipPathUnits="userSpaceOnUse" id="clipPath63">
        <path d="M416 421 L515 421 L515 445 L416 445 L416 421 Z" />
      </clipPath>
      <clipPath clipPathUnits="userSpaceOnUse" id="clipPath64">
        <path d="M92 445 L104 445 L104 456 L92 456 L92 445 Z" />
      </clipPath>
      <clipPath clipPathUnits="userSpaceOnUse" id="clipPath65">
        <path d="M391 524 L697 524 L697 548 L391 548 L391 524 Z" />
      </clipPath>
      <clipPath clipPathUnits="userSpaceOnUse" id="clipPath66">
        <path d="M92 551 L104 551 L104 562 L92 562 L92 551 Z" />
      </clipPath>
      <clipPath clipPathUnits="userSpaceOnUse" id="clipPath67">
        <path d="M387 594 L854 594 L854 662 L387 662 L387 594 Z" />
      </clipPath>
      <clipPath clipPathUnits="userSpaceOnUse" id="clipPath68">
        <path d="M92 646 L104 646 L104 657 L92 657 L92 646 Z" />
      </clipPath>
      <clipPath clipPathUnits="userSpaceOnUse" id="clipPath69">
        <path d="M403 763 L645 763 L645 787 L403 787 L403 763 Z" />
      </clipPath>
      <clipPath clipPathUnits="userSpaceOnUse" id="clipPath70">
        <path d="M92 785 L104 785 L104 796 L92 796 L92 785 Z" />
      </clipPath>
      <clipPath clipPathUnits="userSpaceOnUse" id="clipPath71">
        <path d="M384 229 L740 229 L740 253 L384 253 L384 229 Z" />
      </clipPath>
      <clipPath clipPathUnits="userSpaceOnUse" id="clipPath72">
        <path d="M1167 251 L1179 251 L1179 262 L1167 262 L1167 251 Z" />
      </clipPath>
      <clipPath clipPathUnits="userSpaceOnUse" id="clipPath73">
        <path d="M404 347 L593 347 L593 371 L404 371 L404 347 Z" />
      </clipPath>
      <clipPath clipPathUnits="userSpaceOnUse" id="clipPath74">
        <path d="M1167 370 L1179 370 L1179 381 L1167 381 L1167 370 Z" />
      </clipPath>
      <clipPath clipPathUnits="userSpaceOnUse" id="clipPath75">
        <path d="M385 471 L776 471 L776 495 L385 495 L385 471 Z" />
      </clipPath>
      <clipPath clipPathUnits="userSpaceOnUse" id="clipPath76">
        <path d="M1167 495 L1179 495 L1179 506 L1167 506 L1167 495 Z" />
      </clipPath>
      <clipPath clipPathUnits="userSpaceOnUse" id="clipPath77">
        <path d="M339 699 L1210 699 L1210 723 L339 723 L339 699 Z" />
      </clipPath>
      <clipPath clipPathUnits="userSpaceOnUse" id="clipPath78">
        <path d="M1306 725 L1318 725 L1318 736 L1306 736 L1306 725 Z" />
      </clipPath>
      <clipPath clipPathUnits="userSpaceOnUse" id="clipPath79">
        <path d="M344 825 L1100 825 L1100 849 L344 849 L344 825 Z" />
      </clipPath>
      <clipPath clipPathUnits="userSpaceOnUse" id="clipPath80">
        <path d="M1167 845 L1179 845 L1179 856 L1167 856 L1167 845 Z" />
      </clipPath>
      <clipPath clipPathUnits="userSpaceOnUse" id="clipPath81">
        <path d="M23 880 L779 880 L779 904 L23 904 L23 880 Z" />
      </clipPath>
      <clipPath clipPathUnits="userSpaceOnUse" id="clipPath82">
        <path d="M807 905 L819 905 L819 916 L807 916 L807 905 Z" />
      </clipPath>
    </defs>
    <g font-size="19" fill="rgb(255,245,181)" font-family="'Lucida Sans'" stroke-linejoin="round" stroke="rgb(255,245,181)" stroke-width="0" stroke-miterlimit="0">
      <rect x="901" y="10" clip-path="url(#clipPath1)" width="105" height="50" stroke="none" />
    </g>
    <g stroke-width="0.1" font-size="19" font-family="'Lucida Sans'" stroke-linecap="butt">
      <rect x="901" y="10" clip-path="url(#clipPath1)" fill="none" width="104" height="49" />
      <text xml:space="preserve" x="908" y="21" clip-path="url(#clipPath2)" stroke="none">theCreator</text>
      <text xml:space="preserve" x="948" y="43" clip-path="url(#clipPath3)" stroke="none">: </text>
      <text xml:space="preserve" x="902" y="65" clip-path="url(#clipPath2)" stroke="none">actMsrCre...</text>
      <line clip-path="url(#clipPath4)" fill="none" x1="952" x2="952" y1="60" y2="1000" stroke-dasharray="10,10" stroke-width="1.1" />
    </g>
    <g stroke-linecap="butt" font-size="19" fill="rgb(77,137,20)" font-family="'Lucida Sans'" stroke-dasharray="10,10" stroke="rgb(77,137,20)" stroke-width="1.1">
      <rect x="943" y="90" clip-path="url(#clipPath5)" width="20" height="40" stroke="none" />
      <rect x="944" y="91" clip-path="url(#clipPath5)" fill="none" width="18" stroke-dasharray="none" height="38" stroke-width="2.1" />
      <text x="964" y="109" clip-path="url(#clipPath6)" stroke-dasharray="none" stroke="none" stroke-width="2.1" xml:space="preserve">tsi01</text>
    </g>
    <g stroke-linecap="butt" font-size="19" fill="rgb(255,245,181)" font-family="'Lucida Sans'" stroke="rgb(255,245,181)" stroke-width="2.1">
      <rect x="1016" y="10" clip-path="url(#clipPath7)" width="97" height="50" stroke="none" />
      <rect x="1016" y="10" clip-path="url(#clipPath7)" fill="none" width="96" height="49" stroke="black" stroke-width="0.1" />
      <text x="1027" y="21" clip-path="url(#clipPath8)" fill="black" stroke="none" stroke-width="0.1" xml:space="preserve">theClock</text>
      <text x="1059" y="43" clip-path="url(#clipPath9)" fill="black" stroke="none" stroke-width="0.1" xml:space="preserve">: </text>
      <text x="1016" y="65" clip-path="url(#clipPath10)" fill="black" stroke="none" stroke-width="0.1" xml:space="preserve">actActivat...</text>
    </g>
    <g stroke-width="1.1" font-size="19" stroke-dasharray="10,10" font-family="'Lucida Sans'" stroke-linecap="butt">
      <line clip-path="url(#clipPath11)" fill="none" x1="1063" x2="1063" y1="60" y2="1000" />
      <rect x="1054" y="150" clip-path="url(#clipPath12)" fill="rgb(77,137,20)" width="20" height="40" stroke="none" />
    </g>
    <g stroke-linecap="butt" font-size="19" fill="rgb(77,137,20)" font-family="'Lucida Sans'" stroke="rgb(77,137,20)" stroke-width="2.1">
      <rect x="1055" y="151" clip-path="url(#clipPath12)" fill="none" width="18" height="38" />
      <text xml:space="preserve" x="1075" y="169" clip-path="url(#clipPath13)" stroke="none">tsi02</text>
      <rect x="1054" y="556" clip-path="url(#clipPath14)" width="20" height="40" stroke="none" />
      <rect x="1055" y="557" clip-path="url(#clipPath14)" fill="none" width="18" height="38" />
      <text xml:space="preserve" x="1075" y="575" clip-path="url(#clipPath15)" stroke="none">tsi06</text>
      <rect x="1054" y="790" clip-path="url(#clipPath16)" width="20" height="40" stroke="none" />
      <rect x="1055" y="791" clip-path="url(#clipPath16)" fill="none" width="18" height="38" />
      <text xml:space="preserve" x="1075" y="809" clip-path="url(#clipPath17)" stroke="none">tsi09</text>
      <rect x="1123" y="10" clip-path="url(#clipPath18)" fill="rgb(255,245,181)" width="127" height="50" stroke="none" />
      <rect x="1123" y="10" clip-path="url(#clipPath18)" fill="none" width="126" height="49" stroke="black" stroke-width="0.1" />
      <text x="1174" y="21" clip-path="url(#clipPath19)" fill="black" stroke="none" stroke-width="0.1" xml:space="preserve">bill</text>
      <text x="1181" y="43" clip-path="url(#clipPath19)" fill="black" stroke="none" stroke-width="0.1" xml:space="preserve">: </text>
      <text x="1127" y="65" clip-path="url(#clipPath20)" fill="black" stroke="none" stroke-width="0.1" xml:space="preserve">actAdministr...</text>
    </g>
    <g stroke-width="1.1" font-size="19" stroke-dasharray="10,10" font-family="'Lucida Sans'" stroke-linecap="butt">
      <line clip-path="url(#clipPath21)" fill="none" x1="1185" x2="1185" y1="60" y2="1000" />
      <rect x="1176" y="210" clip-path="url(#clipPath22)" fill="rgb(77,137,20)" width="20" height="40" stroke="none" />
    </g>
    <g stroke-linecap="butt" font-size="19" fill="rgb(77,137,20)" font-family="'Lucida Sans'" stroke="rgb(77,137,20)" stroke-width="2.1">
      <rect x="1177" y="211" clip-path="url(#clipPath22)" fill="none" width="18" height="38" />
      <text xml:space="preserve" x="1197" y="229" clip-path="url(#clipPath23)" stroke="none">tsi03</text>
      <rect x="1176" y="330" clip-path="url(#clipPath24)" width="20" height="40" stroke="none" />
      <rect x="1177" y="331" clip-path="url(#clipPath24)" fill="none" width="18" height="38" />
      <text xml:space="preserve" x="1197" y="349" clip-path="url(#clipPath25)" stroke="none">tsi04</text>
      <rect x="1176" y="450" clip-path="url(#clipPath26)" width="20" height="40" stroke="none" />
      <rect x="1177" y="451" clip-path="url(#clipPath26)" fill="none" width="18" height="38" />
      <text xml:space="preserve" x="1197" y="469" clip-path="url(#clipPath27)" stroke="none">tsi05</text>
      <rect x="1176" y="256" clip-path="url(#clipPath28)" fill="rgb(204,242,166)" width="20" height="40" stroke="none" />
      <rect x="1176" y="256" clip-path="url(#clipPath28)" fill="none" width="19" height="39" stroke="rgb(209,209,209)" stroke-width="0.1" />
      <text x="1197" y="275" clip-path="url(#clipPath29)" stroke="none" stroke-width="0.1" xml:space="preserve">tsi03</text>
      <rect x="1176" y="375" clip-path="url(#clipPath30)" fill="rgb(204,242,166)" width="20" height="40" stroke="none" stroke-width="0.1" />
      <rect x="1176" y="375" clip-path="url(#clipPath30)" fill="none" width="19" height="39" stroke="rgb(209,209,209)" stroke-width="0.1" />
      <text x="1197" y="394" clip-path="url(#clipPath31)" stroke="none" stroke-width="0.1" xml:space="preserve">tsi04</text>
      <rect x="1176" y="500" clip-path="url(#clipPath32)" fill="rgb(204,242,166)" width="20" height="40" stroke="none" stroke-width="0.1" />
      <rect x="1176" y="500" clip-path="url(#clipPath32)" fill="none" width="19" height="39" stroke="rgb(209,209,209)" stroke-width="0.1" />
      <text x="1197" y="519" clip-path="url(#clipPath33)" stroke="none" stroke-width="0.1" xml:space="preserve">tsi05</text>
      <rect x="1176" y="850" clip-path="url(#clipPath34)" fill="rgb(204,242,166)" width="20" height="40" stroke="none" stroke-width="0.1" />
      <rect x="1176" y="850" clip-path="url(#clipPath34)" fill="none" width="19" height="39" stroke="rgb(209,209,209)" stroke-width="0.1" />
      <text x="1197" y="869" clip-path="url(#clipPath35)" stroke="none" stroke-width="0.1" xml:space="preserve">tsi09</text>
      <rect x="1260" y="10" clip-path="url(#clipPath36)" fill="rgb(255,245,181)" width="131" height="50" stroke="none" stroke-width="0.1" />
      <rect x="1260" y="10" clip-path="url(#clipPath36)" fill="none" width="130" height="49" stroke="black" stroke-width="0.1" />
      <text x="1301" y="21" clip-path="url(#clipPath37)" fill="black" stroke="none" stroke-width="0.1" xml:space="preserve">tango</text>
      <text x="1320" y="43" clip-path="url(#clipPath38)" fill="black" stroke="none" stroke-width="0.1" xml:space="preserve">: </text>
      <text x="1264" y="65" clip-path="url(#clipPath39)" fill="black" stroke="none" stroke-width="0.1" xml:space="preserve">actComCom...</text>
    </g>
    <g stroke-width="1.1" font-size="19" stroke-dasharray="10,10" font-family="'Lucida Sans'" stroke-linecap="butt">
      <line clip-path="url(#clipPath40)" fill="none" x1="1324" x2="1324" y1="60" y2="1000" />
      <rect x="1315" y="651" clip-path="url(#clipPath41)" fill="rgb(77,137,20)" width="20" height="40" stroke="none" />
    </g>
    <g stroke-linecap="butt" font-size="19" fill="rgb(77,137,20)" font-family="'Lucida Sans'" stroke="rgb(77,137,20)" stroke-width="2.1">
      <rect x="1316" y="652" clip-path="url(#clipPath41)" fill="none" width="18" height="38" />
      <text xml:space="preserve" x="1336" y="670" clip-path="url(#clipPath42)" stroke="none">tsi07</text>
      <rect x="1315" y="730" clip-path="url(#clipPath43)" fill="rgb(204,242,166)" width="20" height="40" stroke="none" />
      <rect x="1315" y="730" clip-path="url(#clipPath43)" fill="none" width="19" height="39" stroke="rgb(209,209,209)" stroke-width="0.1" />
      <text x="1336" y="749" clip-path="url(#clipPath44)" stroke="none" stroke-width="0.1" xml:space="preserve">tsi07</text>
      <rect x="762" y="10" clip-path="url(#clipPath45)" fill="rgb(255,245,181)" width="129" height="50" stroke="none" stroke-width="0.1" />
      <rect x="762" y="10" clip-path="url(#clipPath45)" fill="none" width="128" height="49" stroke="black" stroke-width="0.1" />
      <text x="803" y="21" clip-path="url(#clipPath46)" fill="black" stroke="none" stroke-width="0.1" xml:space="preserve">steve</text>
      <text x="821" y="43" clip-path="url(#clipPath47)" fill="black" stroke="none" stroke-width="0.1" xml:space="preserve">: </text>
      <text x="764" y="65" clip-path="url(#clipPath46)" fill="black" stroke="none" stroke-width="0.1" xml:space="preserve">actCoordinator</text>
    </g>
    <g stroke-width="1.1" font-size="19" stroke-dasharray="10,10" font-family="'Lucida Sans'" stroke-linecap="butt">
      <line clip-path="url(#clipPath48)" fill="none" x1="825" x2="825" y1="60" y2="1000" />
      <rect x="816" y="910" clip-path="url(#clipPath49)" fill="rgb(204,242,166)" width="20" height="40" stroke="none" />
    </g>
    <g stroke-linecap="butt" font-size="19" fill="rgb(209,209,209)" font-family="'Lucida Sans'" stroke="rgb(209,209,209)" stroke-width="0.1">
      <rect x="816" y="910" clip-path="url(#clipPath49)" fill="none" width="19" height="39" />
      <text x="837" y="929" clip-path="url(#clipPath50)" fill="rgb(77,137,20)" stroke="none" xml:space="preserve">tsi09</text>
      <rect x="59" y="10" clip-path="url(#clipPath51)" fill="rgb(238,201,142)" width="70" height="30" stroke="none" />
      <rect x="59" y="10" clip-path="url(#clipPath51)" fill="none" width="69" height="29" stroke="black" />
      <text x="62" y="33" clip-path="url(#clipPath52)" fill="black" stroke="none" xml:space="preserve">System</text>
    </g>
    <g stroke-width="1.1" font-size="19" stroke-dasharray="10,10" font-family="'Lucida Sans'" stroke-linecap="butt">
      <line clip-path="url(#clipPath53)" fill="none" x1="93" x2="93" y1="40" y2="1000" />
    </g>
    <g stroke-linecap="butt" font-size="19" fill="rgb(136,136,136)" font-family="'Lucida Sans'" stroke="rgb(136,136,136)" stroke-width="2.1">
      <line clip-path="url(#clipPath54)" fill="none" x1="943" x2="94" y1="90" y2="90" />
      <text x="394" y="83" clip-path="url(#clipPath55)" fill="black" stroke="none" xml:space="preserve">oeCreateSystemAndEnvironment(4)</text>
      <line clip-path="url(#clipPath56)" fill="none" x1="101" x2="94" y1="87" y2="90" />
      <line clip-path="url(#clipPath56)" fill="none" x1="94" x2="101" y1="90" y2="93" />
      <line clip-path="url(#clipPath54)" fill="none" x1="1054" x2="94" y1="150" y2="150" />
      <text x="396" y="146" clip-path="url(#clipPath57)" fill="black" stroke="none" xml:space="preserve">oeSetClock(2017:11:24 - 03:20:00)</text>
      <line clip-path="url(#clipPath58)" fill="none" x1="101" x2="94" y1="147" y2="150" />
      <line clip-path="url(#clipPath58)" fill="none" x1="94" x2="101" y1="150" y2="153" />
      <line clip-path="url(#clipPath54)" fill="none" x1="1176" x2="94" y1="210" y2="210" />
      <text x="391" y="201" clip-path="url(#clipPath59)" fill="black" stroke="none" xml:space="preserve">oeLogin(icrashadmin,7WXC1359)</text>
      <line clip-path="url(#clipPath60)" fill="none" x1="101" x2="94" y1="207" y2="210" />
      <line clip-path="url(#clipPath60)" fill="none" x1="94" x2="101" y1="210" y2="213" />
      <line clip-path="url(#clipPath54)" fill="none" x1="1176" x2="94" y1="330" y2="330" />
      <text x="389" y="322" clip-path="url(#clipPath61)" fill="black" stroke="none" xml:space="preserve">oeAddCoordinator(1,steve,pwdMessirExcalibur2017)</text>
      <line clip-path="url(#clipPath62)" fill="none" x1="101" x2="94" y1="327" y2="330" />
      <line clip-path="url(#clipPath62)" fill="none" x1="94" x2="101" y1="330" y2="333" />
      <line clip-path="url(#clipPath54)" fill="none" x1="1176" x2="94" y1="450" y2="450" />
      <text x="417" y="441" clip-path="url(#clipPath63)" fill="black" stroke="none" xml:space="preserve">oeLogout()</text>
      <line clip-path="url(#clipPath64)" fill="none" x1="101" x2="94" y1="447" y2="450" />
      <line clip-path="url(#clipPath64)" fill="none" x1="94" x2="101" y1="450" y2="453" />
      <line clip-path="url(#clipPath54)" fill="none" x1="1054" x2="94" y1="556" y2="556" />
      <text x="392" y="544" clip-path="url(#clipPath65)" fill="black" stroke="none" xml:space="preserve">oeSetClock(2017:11:26 - 10:15:00)</text>
      <line clip-path="url(#clipPath66)" fill="none" x1="101" x2="94" y1="553" y2="556" />
      <line clip-path="url(#clipPath66)" fill="none" x1="94" x2="101" y1="556" y2="559" />
      <line clip-path="url(#clipPath54)" fill="none" x1="1315" x2="94" y1="651" y2="651" />
      <text x="459" y="614" clip-path="url(#clipPath67)" fill="black" stroke="none" xml:space="preserve">oeAlert(witness,2017:11:26,10:10:16,</text>
      <text x="418" y="636" clip-path="url(#clipPath67)" fill="black" stroke="none" xml:space="preserve">+3524666445252,49.627675:6.159590,3 cars </text>
      <text x="518" y="658" clip-path="url(#clipPath67)" fill="black" stroke="none" xml:space="preserve">involved in an accident.)</text>
      <line clip-path="url(#clipPath68)" fill="none" x1="101" x2="94" y1="648" y2="651" />
      <line clip-path="url(#clipPath68)" fill="none" x1="94" x2="101" y1="651" y2="654" />
      <line clip-path="url(#clipPath54)" fill="none" x1="1054" x2="94" y1="790" y2="790" />
      <text x="404" y="783" clip-path="url(#clipPath69)" fill="black" stroke="none" xml:space="preserve">oeSollicitateCrisisHandling()</text>
      <line clip-path="url(#clipPath70)" fill="none" x1="101" x2="94" y1="787" y2="790" />
      <line clip-path="url(#clipPath70)" fill="none" x1="94" x2="101" y1="790" y2="793" />
      <line clip-path="url(#clipPath54)" fill="none" x1="1176" x2="94" y1="256" y2="256" stroke-dasharray="5,5" />
      <text x="385" y="249" clip-path="url(#clipPath71)" fill="black" stroke-dasharray="5,5" stroke="none" xml:space="preserve">ieMessage(You are logged ! Welcome ...)</text>
      <line clip-path="url(#clipPath72)" fill="none" x1="1169" x2="1176" y1="259" y2="256" />
      <line clip-path="url(#clipPath72)" fill="none" x1="1176" x2="1169" y1="256" y2="253" />
      <line clip-path="url(#clipPath54)" fill="none" x1="1176" x2="94" y1="375" y2="375" stroke-dasharray="5,5" />
      <text x="405" y="367" clip-path="url(#clipPath73)" fill="black" stroke-dasharray="5,5" stroke="none" xml:space="preserve">ieCoordinatorAdded()</text>
      <line clip-path="url(#clipPath74)" fill="none" x1="1169" x2="1176" y1="378" y2="375" />
      <line clip-path="url(#clipPath74)" fill="none" x1="1176" x2="1169" y1="375" y2="372" />
      <line clip-path="url(#clipPath54)" fill="none" x1="1176" x2="94" y1="500" y2="500" stroke-dasharray="5,5" />
      <text x="386" y="491" clip-path="url(#clipPath75)" fill="black" stroke-dasharray="5,5" stroke="none" xml:space="preserve">ieMessage(You are logged out ! Good Bye ...)</text>
      <line clip-path="url(#clipPath76)" fill="none" x1="1169" x2="1176" y1="503" y2="500" />
      <line clip-path="url(#clipPath76)" fill="none" x1="1176" x2="1169" y1="500" y2="497" />
      <line clip-path="url(#clipPath54)" fill="none" x1="1315" x2="94" y1="730" y2="730" stroke-dasharray="5,5" />
      <text x="340" y="719" clip-path="url(#clipPath77)" fill="black" stroke-dasharray="5,5" stroke="none" xml:space="preserve">ieSmsSend(+3524666445252,Your alert has been registered. We will handle it and keep you informed)</text>
      <line clip-path="url(#clipPath78)" fill="none" x1="1308" x2="1315" y1="733" y2="730" />
      <line clip-path="url(#clipPath78)" fill="none" x1="1315" x2="1308" y1="730" y2="727" />
      <line clip-path="url(#clipPath54)" fill="none" x1="1176" x2="94" y1="850" y2="850" stroke-dasharray="5,5" />
      <text x="345" y="845" clip-path="url(#clipPath79)" fill="black" stroke-dasharray="5,5" stroke="none" xml:space="preserve">ieMessage(There are alerts pending since more than the defined delay. Please REACT !)</text>
      <line clip-path="url(#clipPath80)" fill="none" x1="1169" x2="1176" y1="853" y2="850" />
      <line clip-path="url(#clipPath80)" fill="none" x1="1176" x2="1169" y1="850" y2="847" />
      <line clip-path="url(#clipPath54)" fill="none" x1="816" x2="94" y1="910" y2="910" stroke-dasharray="5,5" />
      <text x="24" y="900" clip-path="url(#clipPath81)" fill="black" stroke-dasharray="5,5" stroke="none" xml:space="preserve">ieMessage(There are alerts pending since more than the defined delay. Please REACT !)</text>
      <line clip-path="url(#clipPath82)" fill="none" x1="809" x2="816" y1="913" y2="910" />
      <line clip-path="url(#clipPath82)" fill="none" x1="816" x2="809" y1="910" y2="907" />
    </g>
  </g>
</svg>

